<?xml version="1.0" standalone="no"?>
<!DOCTYPE svg PUBLIC "-//W3C//DTD SVG 20010904//EN"
 "http://www.w3.org/TR/2001/REC-SVG-20010904/DTD/svg10.dtd">
<svg version="1.0" xmlns="http://www.w3.org/2000/svg"
 width="1024.000000pt" height="1024.000000pt" viewBox="0 0 1024.000000 1024.000000"
 preserveAspectRatio="xMidYMid meet">
<metadata>
Created by potrace 1.14, written by Peter Selinger 2001-2017
</metadata>
<g transform="translate(0.000000,1024.000000) scale(0.100000,-0.100000)"
fill="#000000" stroke="none">
<path d="M5425 9785 c-5 -2 -27 -6 -48 -10 -37 -6 -38 -8 -32 -36 4 -17 38
-70 77 -117 79 -99 143 -220 160 -304 34 -164 -62 -349 -307 -593 -225 -224
-458 -351 -707 -386 -174 -24 -303 22 -434 155 -117 119 -145 201 -108 327 20
70 127 291 192 398 28 47 49 88 47 91 -10 15 -199 35 -330 34 -164 -1 -287
-20 -431 -69 -188 -62 -420 -193 -531 -298 -31 -29 -106 -115 -167 -192 -132
-164 -204 -233 -284 -271 -71 -34 -170 -42 -259 -21 -35 8 -63 12 -63 8 0 -3
21 -32 48 -65 115 -143 145 -185 177 -251 46 -96 58 -151 53 -245 -8 -145 -96
-277 -288 -434 -129 -105 -368 -258 -549 -350 l-174 -88 -71 4 c-54 4 -104 18
-211 59 -135 52 -142 56 -221 132 -45 42 -84 77 -86 77 -3 0 -16 -37 -28 -82
-44 -163 -25 -251 152 -718 80 -210 87 -236 72 -245 -295 -176 -482 -374 -614
-649 -99 -208 -160 -423 -160 -569 0 -84 6 -113 59 -298 88 -305 139 -411 274
-574 93 -111 288 -305 301 -298 6 3 123 83 261 177 341 233 440 296 582 368
115 58 126 62 206 66 67 3 100 0 154 -16 207 -63 348 -256 328 -448 -9 -87
-62 -235 -120 -334 -109 -186 -382 -407 -696 -565 -216 -109 -419 -82 -609 81
-36 31 -91 74 -124 96 -61 42 -74 41 -77 -7 0 -11 -4 -60 -8 -110 -11 -118 3
-271 34 -381 100 -355 464 -792 790 -949 185 -90 350 -121 600 -112 219 7 474
55 750 141 43 14 81 23 84 21 2 -3 25 -69 51 -148 231 -698 708 -1101 1374
-1158 338 -29 662 61 940 259 177 126 385 364 518 593 35 60 68 116 73 124 9
12 46 7 250 -35 474 -99 735 -136 854 -125 298 29 587 180 852 444 193 194
311 384 360 581 11 47 25 103 31 124 6 24 29 59 59 91 40 42 66 59 132 85 204
81 380 195 540 349 219 211 349 429 419 701 55 215 49 481 -17 687 -14 43 -25
92 -25 110 0 51 35 126 111 241 115 173 192 351 234 542 26 118 32 404 10 532
-34 205 -109 389 -232 572 -117 174 -129 185 -238 240 -222 110 -299 247 -370
648 -41 236 -95 375 -212 551 -207 312 -582 543 -977 602 -261 38 -526 6 -780
-95 -42 -16 -80 -30 -85 -30 -11 0 -87 192 -106 271 -23 93 -64 215 -96 287
-156 348 -467 631 -827 753 -128 43 -228 59 -371 58 -69 0 -130 -2 -136 -4z
m-2113 -826 c229 -48 356 -253 268 -433 -36 -75 -141 -180 -216 -217 -55 -28
-71 -31 -118 -26 -94 10 -260 108 -350 208 -53 59 -61 81 -53 150 13 108 99
233 195 283 80 42 181 54 274 35z m3882 -974 l58 -66 -11 -60 c-16 -80 -40
-133 -90 -199 -95 -126 -250 -204 -357 -180 -46 11 -70 36 -85 93 -10 37 -8
52 16 127 54 169 152 324 254 405 l43 35 57 -45 c31 -24 82 -74 115 -110z
m-2881 -460 c116 -30 193 -89 243 -187 39 -75 40 -172 2 -243 -45 -87 -134
-163 -239 -206 -81 -33 -216 -33 -284 0 -63 32 -124 93 -155 156 -35 71 -39
180 -10 257 38 101 143 190 260 222 71 19 113 19 183 1z m3832 -466 c274 -50
465 -319 411 -576 -8 -39 -31 -106 -50 -148 -97 -210 -270 -369 -576 -529
l-125 -65 -117 547 -117 547 42 39 c94 88 221 155 342 181 76 17 116 18 190 4z
m-6900 -980 c82 -30 135 -76 170 -144 63 -123 29 -280 -83 -392 -28 -28 -77
-64 -109 -80 -52 -25 -68 -28 -158 -28 -94 0 -105 2 -170 34 -82 40 -151 106
-185 176 -36 74 -35 180 3 257 47 96 152 173 269 198 65 14 199 3 263 -21z
m2747 -717 c111 -56 266 -152 334 -209 55 -44 104 -139 104 -199 0 -136 -153
-376 -350 -549 -226 -200 -484 -322 -700 -332 -232 -11 -406 67 -472 212 -28
63 -31 197 -4 295 22 83 101 249 157 331 101 149 274 300 454 396 180 95 233
114 307 111 58 -3 82 -11 170 -56z m3258 -564 c19 -13 78 -75 133 -138 l99
-115 -53 -25 c-74 -34 -213 -36 -274 -3 -83 44 -132 123 -114 185 27 100 132
148 209 96z m-1409 -168 c95 -23 175 -43 178 -45 6 -7 -46 -82 -91 -131 -47
-51 -73 -55 -117 -18 -42 35 -172 234 -153 234 5 0 87 -18 183 -40z m936 -470
c159 -79 301 -249 332 -398 10 -48 8 -61 -15 -135 -45 -139 -65 -168 -203
-283 -266 -222 -673 -527 -756 -565 -103 -48 -190 -7 -277 131 -19 30 -89 106
-156 168 -139 130 -178 190 -163 252 19 81 143 282 266 430 144 172 338 313
534 387 205 78 302 80 438 13z m-2794 -1449 c104 -27 191 -51 193 -54 9 -8
-75 -124 -120 -165 -64 -59 -126 -86 -186 -80 -90 9 -129 59 -150 195 -6 37
-13 80 -16 96 -5 24 -1 29 28 42 18 8 40 14 48 15 8 0 100 -22 203 -49z"/>
</g>
</svg>
